<svg id="visual" viewBox="0 0 960 540" width="960" height="540" xmlns="http://www.w3.org/2000/svg" xmlns:xlink="http://www.w3.org/1999/xlink" version="1.1"><path d="M0 55L22.8 56.8C45.7 58.7 91.3 62.3 137 58.7C182.7 55 228.3 44 274 43C319.7 42 365.3 51 411.2 52.8C457 54.7 503 49.3 548.8 51.2C594.7 53 640.3 62 686 63.8C731.7 65.7 777.3 60.3 823 55C868.7 49.7 914.3 44.3 937.2 41.7L960 39L960 0L937.2 0C914.3 0 868.7 0 823 0C777.3 0 731.7 0 686 0C640.3 0 594.7 0 548.8 0C503 0 457 0 411.2 0C365.3 0 319.7 0 274 0C228.3 0 182.7 0 137 0C91.3 0 45.7 0 22.8 0L0 0Z" fill="#2c1739"></path><path d="M0 109L22.8 108.2C45.7 107.3 91.3 105.7 137 101.2C182.7 96.7 228.3 89.3 274 88.3C319.7 87.3 365.3 92.7 411.2 96.3C457 100 503 102 548.8 106.5C594.7 111 640.3 118 686 119.7C731.7 121.3 777.3 117.7 823 108.7C868.7 99.7 914.3 85.3 937.2 78.2L960 71L960 37L937.2 39.7C914.3 42.3 868.7 47.7 823 53C777.3 58.3 731.7 63.7 686 61.8C640.3 60 594.7 51 548.8 49.2C503 47.3 457 52.7 411.2 50.8C365.3 49 319.7 40 274 41C228.3 42 182.7 53 137 56.7C91.3 60.3 45.7 56.7 22.8 54.8L0 53Z" fill="#2e183d"></path><path d="M0 168L22.8 167.2C45.7 166.3 91.3 164.7 137 163.8C182.7 163 228.3 163 274 160.3C319.7 157.7 365.3 152.3 411.2 157.7C457 163 503 179 548.8 189.8C594.7 200.7 640.3 206.3 686 205.5C731.7 204.7 777.3 197.3 823 187.3C868.7 177.3 914.3 164.7 937.2 158.3L960 152L960 69L937.2 76.2C914.3 83.3 868.7 97.7 823 106.7C777.3 115.7 731.7 119.3 686 117.7C640.3 116 594.7 109 548.8 104.5C503 100 457 98 411.2 94.3C365.3 90.7 319.7 85.3 274 86.3C228.3 87.3 182.7 94.7 137 99.2C91.3 103.7 45.7 105.3 22.8 106.2L0 107Z" fill="#311940"></path><path d="M0 309L22.8 317C45.7 325 91.3 341 137 335.5C182.7 330 228.3 303 274 294C319.7 285 365.3 294 411.2 313C457 332 503 361 548.8 371C594.7 381 640.3 372 686 366.5C731.7 361 777.3 359 823 338.3C868.7 317.7 914.3 278.3 937.2 258.7L960 239L960 150L937.2 156.3C914.3 162.7 868.7 175.3 823 185.3C777.3 195.3 731.7 202.7 686 203.5C640.3 204.3 594.7 198.7 548.8 187.8C503 177 457 161 411.2 155.7C365.3 150.3 319.7 155.7 274 158.3C228.3 161 182.7 161 137 161.8C91.3 162.7 45.7 164.3 22.8 165.2L0 166Z" fill="#331b44"></path><path d="M0 428L22.8 435.2C45.7 442.3 91.3 456.7 137 464.7C182.7 472.7 228.3 474.3 274 474.3C319.7 474.3 365.3 472.7 411.2 474.5C457 476.3 503 481.7 548.8 482.5C594.7 483.3 640.3 479.7 686 480.5C731.7 481.3 777.3 486.7 823 476.8C868.7 467 914.3 442 937.2 429.5L960 417L960 237L937.2 256.7C914.3 276.3 868.7 315.7 823 336.3C777.3 357 731.7 359 686 364.5C640.3 370 594.7 379 548.8 369C503 359 457 330 411.2 311C365.3 292 319.7 283 274 292C228.3 301 182.7 328 137 333.5C91.3 339 45.7 323 22.8 315L0 307Z" fill="#361c47"></path><path d="M0 541L22.8 541C45.7 541 91.3 541 137 541C182.7 541 228.3 541 274 541C319.7 541 365.3 541 411.2 541C457 541 503 541 548.8 541C594.7 541 640.3 541 686 541C731.7 541 777.3 541 823 541C868.7 541 914.3 541 937.2 541L960 541L960 415L937.2 427.5C914.3 440 868.7 465 823 474.8C777.3 484.7 731.7 479.3 686 478.5C640.3 477.7 594.7 481.3 548.8 480.5C503 479.7 457 474.3 411.2 472.5C365.3 470.7 319.7 472.3 274 472.3C228.3 472.3 182.7 470.7 137 462.7C91.3 454.7 45.7 440.3 22.8 433.2L0 426Z" fill="#391d4b"></path></svg>